<?xml version="1.0" encoding="iso-8859-1"?>
<!-- Generator: Adobe Illustrator 17.1.0, SVG Export Plug-In . SVG Version: 6.00 Build 0)  -->
<!DOCTYPE svg PUBLIC "-//W3C//DTD SVG 1.1//EN" "http://www.w3.org/Graphics/SVG/1.1/DTD/svg11.dtd">
<svg xmlns="http://www.w3.org/2000/svg" xmlns:xlink="http://www.w3.org/1999/xlink" version="1.1" id="Capa_1" x="0px" y="0px" viewBox="0 0 360.536 360.536" style="enable-background:new 0 0 360.536 360.536;" xml:space="preserve" width="512px" height="512px">
<path d="M301.118,237.566c-9.448,0-18.381,2.227-26.321,6.167l-79.529-51.846v-43.694  c33.417-6.546,58.713-36.042,58.713-71.347c0-40.094-32.619-72.713-72.713-72.713s-72.713,32.619-72.713,72.713  c0,34.596,24.294,63.606,56.713,70.917v44.124l-79.529,51.846c-7.939-3.94-16.873-6.167-26.321-6.167  C26.655,237.566,0,264.221,0,296.985s26.655,59.418,59.418,59.418c32.763,0,59.418-26.654,59.418-59.418  c0-12.045-3.613-23.257-9.797-32.63l70.117-45.71c0.368,0.027,0.736,0.056,1.111,0.056s0.743-0.029,1.111-0.056l70.117,45.71  c-6.184,9.373-9.797,20.585-9.797,32.63c0,32.764,26.655,59.418,59.418,59.418c32.764,0,59.418-26.654,59.418-59.418  S333.881,237.566,301.118,237.566z" fill="#FFFFFF"/>
<g>
</g>
<g>
</g>
<g>
</g>
<g>
</g>
<g>
</g>
<g>
</g>
<g>
</g>
<g>
</g>
<g>
</g>
<g>
</g>
<g>
</g>
<g>
</g>
<g>
</g>
<g>
</g>
<g>
</g>
</svg>
