<svg xmlns="http://www.w3.org/2000/svg" viewBox="0 0 282.9 282.9" width="512" height="512"><style>.a{fill:#FFF;}</style><path d="M175.5 210.1c-1.9 9.1-5.6 20.5-12.7 31 -12.6 18.5-31.7 29.7-45.2 35.8 -8.6 3.9-23.7 6-33.1 6H46.5c-9.4 0-17.1-7.7-17.1-17.1V17.1C29.4 7.7 37.1 0 46.5 0h189.9c9.4 0 17.1 7.7 17.1 17.1v159c0 9.4-2.2 24.8-9.8 29.5 -3.7 2.3-8.7 4-15.4 4.2 -15 0.5-27.5-3.5-36.3-7.6C183.5 198.1 177.4 200.9 175.5 210.1z" class="a"/><path d="M140.2 281.5c16.3-1.7 35.9-5.4 55.8-13 8.8-3.4 22-11.4 29-17.7 9.5-8.6 16.3-18 20.9-25.7 4.9-8.1 1.5-10.4-7.5-7.6 -9 2.8-21.6 4.1-37.1-0.8 -9-2.9-17.1 0.7-20.7 9.5 -6.3 15.3-19.7 37.9-46.8 50.8C125.2 281 130.8 282.5 140.2 281.5z" class="a"/></svg>